<?xml version="1.0" encoding="utf-8"?>
<svg version="1.1" id="dfaefhfh" xmlns="http://www.w3.org/2000/svg" xmlns:xlink="http://www.w3.org/1999/xlink" x="0px" y="0px"
	 viewBox="0 0 80 98" style="enable-background:new 0 0 80 98;" xml:space="preserve">
<style type="text/css">
	.st0{fill:#BA9C63;}
	.st1{opacity:0.8;fill:#060606;enable-background:new    ;}
	.st2{fill:#FFFFFF;}
	.st3{font-family:'PingFangSC-Medium-GBpc-EUC-H';}
	.st4{font-size:18px;}
</style>
<path id="ghtyht" class="st0" d="M40,98C16.8,77.6,3.8,61.9,1.3,50.9C0.4,47.4,0,43.8,0,40.2C0,18,17.9,0,40,0s40,18,40,40.2
	c0,3.6-0.4,7.2-1.3,10.7C76.2,61.9,63.2,77.6,40,98z M40,74.6c18.6,0,33.7-15.3,33.7-34.1S58.6,6.4,40,6.4S6.3,21.7,6.3,40.5
	S21.4,74.6,40,74.6z"/>
<ellipse id="uiku" class="st1" cx="40" cy="40.5" rx="33.7" ry="34.1"/>
<text transform="matrix(1 0 0 1 13.0006 46.1303)" class="st2 st3 st4">32345</text>
</svg>
