<?xml version="1.0" encoding="utf-8"?>
<svg version="1.1" id="effrkt" xmlns="http://www.w3.org/2000/svg" xmlns:xlink="http://www.w3.org/1999/xlink" x="0px" y="0px"
	 viewBox="0 0 70 85" style="enable-background:new 0 0 70 85;" xml:space="preserve">
<style type="text/css">
	.st0{fill:#BA9C63;}
	.st1{opacity:0.8;fill:#060606;enable-background:new    ;}
	.st2{fill:#FFFFFF;}
	.st3{font-family:'PingFangSC-Medium-GBpc-EUC-H';}
	.st4{font-size:18px;}
</style>
<path id="kjhg" class="st0" d="M35,85C14.7,67.3,3.4,53.7,1.1,44.2C0.4,41.1,0,38,0,34.9C0,15.6,15.7,0,35,0
	s35,15.6,35,34.9c0,3.1-0.4,6.2-1.1,9.3C66.6,53.7,55.3,67.3,35,85z M35,64.7c16.3,0,29.5-13.2,29.5-29.6S51.3,5.5,35,5.5
	S5.5,18.8,5.5,35.1S18.7,64.7,35,64.7z"/>
<ellipse id="lhhgy" class="st1" cx="35" cy="35.1" rx="29.5" ry="29.6"/>
<text transform="matrix(1 0 0 1 13.4006 40.7608)" class="st2 st3 st4">3455</text>
</svg>
