<?xml version="1.0" encoding="utf-8"?>
<svg version="1.1" id="dfasd" xmlns="http://www.w3.org/2000/svg" xmlns:xlink="http://www.w3.org/1999/xlink" x="0px" y="0px"
	 viewBox="0 0 40 47" style="enable-background:new 0 0 40 47;" xml:space="preserve">
<style type="text/css">
	.st0{fill:#BA9C63;}
	.st1{opacity:0.8;fill:#060606;enable-background:new    ;}
	.st2{fill:#FFFFFF;}
	.st3{font-family:'PingFangSC-Medium-GBpc-EUC-H';}
	.st4{font-size:18px;}
</style>
<path id="wer" class="st0" d="M20,47C8.4,37.2,1.9,29.7,0.6,24.4C0.2,22.7,0,21,0,19.3C0,8.6,9,0,20,0s20,8.6,20,19.3
	c0,1.7-0.2,3.4-0.6,5.1C38.1,29.7,31.6,37.2,20,47z M20,35.8c9.3,0,16.8-7.3,16.8-16.3S29.3,3.1,20,3.1S3.2,10.4,3.2,19.4
	S10.7,35.8,20,35.8z"/>
<ellipse id="were" class="st1" cx="20" cy="19.4" rx="16.8" ry="16.3"/>
<text transform="matrix(1 0 0 1 14.6003 25.0651)" class="st2 st3 st4">2</text>
</svg>
